<?xml version="1.0" encoding="UTF-8" standalone="no"?>
<!-- Created with Inkscape (http://www.inkscape.org/) -->

<svg
   width="1920"
   height="2160"
   viewBox="0 0 507.99999 571.5"
   version="1.1"
   id="svg5"
   inkscape:export-filename="bitmap.png"
   inkscape:export-xdpi="96"
   inkscape:export-ydpi="96"
   inkscape:version="1.2.1 (9c6d41e410, 2022-07-14)"
   sodipodi:docname="Mountains svg.svg"
   xmlns:inkscape="http://www.inkscape.org/namespaces/inkscape"
   xmlns:sodipodi="http://sodipodi.sourceforge.net/DTD/sodipodi-0.dtd"
   xmlns:xlink="http://www.w3.org/1999/xlink"
   xmlns="http://www.w3.org/2000/svg"
   xmlns:svg="http://www.w3.org/2000/svg">
  <sodipodi:namedview
     id="namedview7"
     pagecolor="#505050"
     bordercolor="#ffffff"
     borderopacity="1"
     inkscape:showpageshadow="0"
     inkscape:pageopacity="0"
     inkscape:pagecheckerboard="1"
     inkscape:deskcolor="#505050"
     inkscape:document-units="mm"
     showgrid="false"
     inkscape:zoom="0.32346812"
     inkscape:cx="-83.470359"
     inkscape:cy="1052.654"
     inkscape:window-width="2560"
     inkscape:window-height="1351"
     inkscape:window-x="-9"
     inkscape:window-y="2882"
     inkscape:window-maximized="1"
     inkscape:current-layer="layer6" />
  <defs
     id="defs2">
    <linearGradient
       inkscape:collect="always"
       id="linearGradient1798">
      <stop
         style="stop-color:#ecff58;stop-opacity:0.57861638;"
         offset="0"
         id="stop1794" />
      <stop
         style="stop-color:#ffffff;stop-opacity:0;"
         offset="1"
         id="stop1796" />
    </linearGradient>
    <linearGradient
       inkscape:collect="always"
       id="linearGradient1194">
      <stop
         style="stop-color:#dffc8e;stop-opacity:0.67295599;"
         offset="0"
         id="stop1190" />
      <stop
         style="stop-color:#88c5ff;stop-opacity:1;"
         offset="1"
         id="stop1192" />
    </linearGradient>
    <radialGradient
       inkscape:collect="always"
       xlink:href="#linearGradient1194"
       id="radialGradient1287"
       cx="72.500023"
       cy="45.083324"
       fx="72.500023"
       fy="45.083324"
       r="254"
       gradientTransform="matrix(-0.4124095,0.27349417,-0.49545451,-0.74710944,124.73643,28.853838)"
       gradientUnits="userSpaceOnUse" />
    <radialGradient
       inkscape:collect="always"
       xlink:href="#linearGradient1798"
       id="radialGradient1800"
       cx="72.500008"
       cy="55.016361"
       fx="72.500008"
       fy="55.016361"
       r="254"
       gradientTransform="matrix(-0.55105924,0.51413253,-1.1730212,-1.2572725,176.98715,58.070599)"
       gradientUnits="userSpaceOnUse" />
  </defs>
  <g
     inkscape:groupmode="layer"
     id="layer4"
     inkscape:label="Sky 1"
     style="fill-opacity:1;fill:url(#radialGradient1287)">
    <path
       style="display:inline;fill:#88c5ff;fill-opacity:1;stroke-width:0.264583"
       d="M 0,0 H 507.99999 V 571.49999 H 0 Z"
       id="path126"
       inkscape:label="path126" />
  </g>
  <g
     inkscape:groupmode="layer"
     id="layer3"
     inkscape:label="Sun"
     transform="translate(-71.719572,-17.351509)"
     sodipodi:insensitive="true"
     style="display:inline">
    <circle
       style="fill:#eaf51e;fill-opacity:1;stroke-width:0.243694"
       id="path3958"
       cx="144.21957"
       cy="49.851509"
       r="17.5" />
    <path
       style="display:inline;fill:url(#radialGradient1800);fill-opacity:1;stroke-width:0.264583"
       d="M 0,0 H 507.99999 V 571.49999 H 0 Z"
       id="path1792"
       inkscape:label="path1792"
       transform="translate(71.719572,17.351509)" />
  </g>
  <g
     inkscape:groupmode="layer"
     id="layer2"
     inkscape:label="Mt 1"
     transform="matrix(1,0,0,0.94664381,2.4999999e-6,-35.442667)"
     style="display:inline">
    <path
       style="display:inline;fill:#857fa0;fill-opacity:1;stroke-width:0.267991"
       d="m 0,166.98343 8.6757546,-2.67021 10.1217134,-7.41724 13.302824,-2.67021 10.121712,0.89007 9.832523,-2.37352 10.700099,-11.27421 12.146055,-8.604 12.435247,-3.85697 5.205455,-3.26359 8.386557,1.78014 9.83253,3.56028 9.54333,0.59338 9.83252,-5.04373 21.97858,-13.64773 9.83252,-3.26359 8.67575,-5.93379 11.56768,8.90069 8.96494,12.75766 21.97858,10.38414 12.43525,12.46097 13.8812,21.06498 13.01364,7.12056 34.12464,-26.10871 13.30282,-12.16428 11.56767,-16.02124 4.62705,-3.85697 20.82184,12.75766 19.08664,-16.31794 14.74878,-17.801386 4.91627,-2.373519 3.7595,4.450347 11.27847,-13.944419 21.40021,2.076829 12.43523,6.527175 10.12172,11.867593 5.20546,-1.18676 11.56767,5.93379 19.95424,17.20801 9.54333,5.34042 4.04868,4.15365 10.41091,8.60401 12.6144,-10.08746 V 641.1521 H 0 Z"
       id="path3206" />
    <path
       id="path26592"
       style="display:inline;fill:#7a7296;fill-opacity:1;stroke-width:0.271938"
       d="m 397.99895,85.633995 -9.6144,7.692695 c 0,0 -2.09671,2.367687 -2.3859,2.596805 -0.28919,0.229118 -1.95182,3.754092 -1.95182,3.754092 l 0.19947,0.197062 v 5.5e-4 l -0.19947,-0.197612 -2.60294,2.813523 -3.90415,1.5274 1.87998,-5.148296 -3.75946,-4.45065 -4.04884,10.515496 -0.57826,10.99807 7.51892,9.92812 -8.24188,5.49876 -2.24999,8.10921 c -0.20966,0.52676 -0.33361,0.6301 -0.48317,0.85541 l -7.67809,2.95 0.2651,6.47808 c -0.0597,0.74126 -0.073,2.07548 -0.16226,2.07548 -0.0466,0 -2.33092,-2.07524 -2.96933,-2.61809 l -20.12384,-18.29772 -13.11341,-8.03442 -7.70857,-4.72305 0.43356,6.02609 0.47491,3.38616 c -0.0166,0.77653 -0.21015,1.71894 -0.60203,2.75293 l -3.93309,7.94872 1.34462,9.13111 c -0.16818,0.54427 -1.3848,1.67364 -2.49442,2.68743 l -10.71046,8.70314 -8.9979,6.69644 c 0,0 -5.11191,4.31988 -5.92987,5.39995 -0.0281,0.0371 -0.0523,0.0862 -0.0739,0.14194 l -0.006,0.005 10e-4,0.0104 c -0.51137,1.39552 0.78527,7.744 1.15135,9.47066 -0.0259,0.48164 -0.45806,1.03028 -0.94516,1.53887 l -8.71574,6.33015 -21.77129,-10.68145 c -1.5709,-0.79985 -2.9769,-1.50449 -4.30258,-2.19339 l -11.55846,-6.32414 -13.88133,-21.06485 -12.43541,-12.46105 -21.97851,-10.38394 -8.96482,-12.75802 -11.56777,-8.90075 -2.10633,5.51459 c -0.62823,1.19846 -1.55896,2.47364 -2.76056,3.81687 l -4.51445,4.22629 c -1.1909,0.90562 -2.30779,1.58447 -3.35535,2.05473 l -3.90571,1.32652 -2.52749,2.45323 c -0.98079,0.69578 -2.57273,1.58632 -4.66845,2.63393 l -7.52771,3.1214 -3.03237,1.6273 -0.24443,0.10481 c -0.17509,0.0131 -7.44763,0.5575 -7.87239,0.48203 -0.4299,-0.0764 -5.47697,-0.66666 -5.9433,-0.42744 -0.28374,0.14554 -0.68441,0.35111 -1.13223,0.58083 -2.52038,-0.002 -6.12573,0.0468 -7.53856,-0.0491 l -0.87902,-0.0551 c -1.04296,-0.0946 -1.90347,-0.23063 -2.70629,-0.42362 l -8.98085,-3.25187 -8.386053,-1.78015 -1.277958,4.23939 c -0.342788,0.69401 -0.73804,1.33444 -1.256771,1.9401 l -2.916618,2.35988 c -0.864904,0.47695 -1.745574,0.78901 -2.670121,0.96132 l -4.260205,0.38813 -1.468127,2.171 c -0.409738,0.4217 -0.900706,0.81015 -1.510503,1.11908 l -4.383195,1.24627 -2.760555,2.69998 -1.636075,4.32018 -1.226799,5.4005 -5.402254,2.73928 c -1.37137,0.58722 -2.561615,1.05055 -3.306258,1.22007 l -2.129586,0.1452 -4.293795,3.88784 -1.882572,2.17483 c -1.365155,1.20458 -3.100666,1.93263 -4.961454,2.59844 l -2.256194,0.62723 -7.974707,2.37626 -3.169832,2.91615 -1.739429,1.79271 c -1.438454,1.33545 -2.562238,2.26328 -3.522782,2.5111 l -6.086967,-0.0917 -6.441467,2.37626 -6.9525468,2.16009 L -1.1e-5,183.2 v 30.5961 30.5961 0.36083 19.49595 178.43484 197.93079 5.5e-4 H 253.91059 507.82067 v -236.43467 -0.0164 -169.54774 l 0.14883,-67.39898 0.0305,-0.003 v -13.82493 -13.82469 l -1.87275,2.46634 c -0.60082,0.61156 -1.56554,1.12299 -2.84583,1.56943 l -7.89564,1.84948 -10.41125,-8.60379 -4.04833,-4.15368 -6.67401,-3.73444 c -1.83232,-1.18337 -4.12484,-2.87445 -6.93033,-5.1079 l -15.8936,-13.70623 -11.56725,-5.93384 -5.20589,1.18677 -10.12134,-11.867128 -12.43542,-6.527219 z" />
  </g>
  <g
     inkscape:groupmode="layer"
     id="layer5"
     inkscape:label="Mt 2"
     style="display:inline"
     transform="translate(2.5e-6,0.173125)">
    <path
       style="display:inline;fill:#6a758c;fill-opacity:1;stroke-width:0.264583"
       d="m 0,167.10866 25.824724,-8.83379 22.434796,-11.86039 15.565202,-7.36162 23.287802,-4.08979 12.678349,-7.7706 12.269367,2.45387 31.08241,3.27183 28.62853,-7.36162 27.81057,14.72324 4.90774,7.7706 22.90283,8.99754 23.3118,3.68081 17.5861,6.13469 25.35669,-4.08979 16.35916,-10.63345 24.53875,-3.68082 13.08733,-8.17958 17.58608,4.08979 21.67589,7.36163 15.13223,-8.99754 18.40405,-11.04243 16.35916,-3.68082 18.40405,4.08979 18.40407,8.99754 34.40231,22.08487 V 571.49999 L 0,571.15376 Z"
       id="path31605" />
    <path
       id="path32144"
       style="display:inline;fill:#5c6e7f;fill-opacity:1;stroke-width:0.264583"
       d="m 171.77142,125.55667 c 0,0 -1.8405,3.57867 -2.96519,3.68091 -1.12469,0.10225 -8.79326,1.8402 -8.79326,1.8402 l -4.49895,2.35179 -9.20202,1.12448 -14.41618,-1.48259 -8.18761,-2.19884 -11.64787,-1.22628 -12.269534,-2.45411 -1.482597,3.06751 -0.613399,3.16983 -3.476274,1.8402 -3.220475,1.32912 -4.908228,1.4826 -6.901387,1.73839 -6.287989,-0.5116 -3.476273,1.07384 c 0,0 -1.789488,2.24926 -2.402954,2.65824 -0.613467,0.40898 -5.009776,2.50527 -5.367631,2.50527 -0.357857,0 -5.828068,0.40876 -5.828068,0.40876 l -2.607076,2.14716 -5.469951,4.08967 c 0,0 -5.266015,2.4537 -5.521627,2.60707 -0.255609,0.15336 -7.923547,2.40296 -7.923547,2.40296 0,0 -6.492741,3.42526 -6.646106,3.62975 -0.153368,0.20449 -14.774292,3.57859 -14.774292,3.57859 l -7.8217447,2.3518 -5.0611898,3.01583 V 571.49999 L 507.82068,571.15428 508,163.1828 l -17.20102,-11.04274 -17.20153,-11.04222 -18.40405,-8.99739 -18.40404,-4.09018 -7.97471,5.52111 -7.77059,2.65875 -3.9796,3.09955 -15.03836,3.44423 -15.13189,8.99739 -21.67619,-7.36183 -17.58601,-4.08967 -2.65824,7.66827 -6.85023,2.55643 -5.62342,3.88503 -11.4515,1.2268 -6.44147,2.45412 -2.96519,5.01003 c 0,0 -5.82787,3.5783 -6.95255,3.88503 -1.12469,0.30674 -7.77059,0.5116 -7.77059,0.5116 l -12.88293,1.63556 c 0,0 -5.11214,-1.73788 -5.52111,-1.73788 -0.40899,0 -10.2247,-0.5116 -10.2247,-0.5116 l -17.58601,-6.13451 -23.31175,-3.68091 -22.903,-8.99738 -4.90771,-7.77059 z M -2.5e-6,571.49999 H 508 v -5.2e-4 z" />
  </g>
  <g
     inkscape:groupmode="layer"
     id="layer6"
     inkscape:label="Mt 3"
     style="display:inline">
    <path
       style="fill:#527571;fill-opacity:1;stroke-width:0.264583"
       d="m 4.9999997e-6,256.83881 c 0,0 27.4015860000003,-26.99262 38.8529990000003,-31.90037 11.451412,-4.90774 45.396668,-10.63345 45.396668,-10.63345 l 29.037508,-10.63345 24.53874,-4.08979 35.58117,0.81796 26.99262,8.99753 37.62606,11.04244 32.30934,10.63345 30.67343,12.26937 32.30933,2.04489 34.76321,-12.67834 20.85795,-12.26937 31.90036,-7.77061 47.03257,8.17959 39.9487,11.45141 V 570.9917 H -8.5000001e-6 Z"
       id="path38904" />
    <path
       style="fill:#4a6965;fill-opacity:1;stroke-width:0.264583"
       d="m 420.83939,212.66907 -23.34524,11.45459 -16.77313,11.85686 -10.84469,8.38657 -24.14752,12.00146 -18.36367,-2.16894 -26.3566,-10.85711 -30.67343,-12.26937 -51.12237,-16.15467 -34.97793,-10.90951 -10.72547,-1.05313 -8.8953,-0.20448 -10.7357,0.81795 -13.90528,0.20449 -14.72324,1.84041 -13.18958,4.39652 -9.40651,5.41897 -13.700799,3.37408 -12.47386,3.27183 -17.177118,7.15713 -11.860389,7.15714 -2.658364,6.95264 c 0,0 -6.339176,1.84041 -7.975092,3.47632 -1.635916,1.63592 -11.246921,8.79305 -12.882837,9.8155 -1.635916,1.02244 -11.246922,8.17957 -11.246922,8.17957 L -8.5000001e-6,278.3102 V 570.99117 L 507.82066,570.9917 V 232.30007 l -39.9487,-11.45141 z"
       id="path40790" />
  </g>
</svg>
